<?xml version="1.0" encoding="UTF-8" standalone="no"?>
<!-- Created with Inkscape (http://www.inkscape.org/) -->

<svg
   width="16px"
   height="16px"
   viewBox="0 0 16 16"
   version="1.1"
   id="SVGRoot"
   sodipodi:docname="Logo_WIP.svg"
   inkscape:version="1.2.2 (732a01da63, 2022-12-09)"
   inkscape:export-filename="New.png"
   inkscape:export-xdpi="12288"
   inkscape:export-ydpi="12288"
   xmlns:inkscape="http://www.inkscape.org/namespaces/inkscape"
   xmlns:sodipodi="http://sodipodi.sourceforge.net/DTD/sodipodi-0.dtd"
   xmlns:xlink="http://www.w3.org/1999/xlink"
   xmlns="http://www.w3.org/2000/svg"
   xmlns:svg="http://www.w3.org/2000/svg"
   xmlns:rdf="http://www.w3.org/1999/02/22-rdf-syntax-ns#"
   xmlns:cc="http://creativecommons.org/ns#"
   xmlns:dc="http://purl.org/dc/elements/1.1/">
  <defs
     id="defs3721">
    <linearGradient
       id="linearGradient7295"
       inkscape:swatch="solid">
      <stop
         style="stop-color:#ff0000;stop-opacity:1;"
         offset="0"
         id="stop7293" />
    </linearGradient>
    <linearGradient
       id="linearGradient7271"
       inkscape:swatch="gradient">
      <stop
         style="stop-color:#ff0000;stop-opacity:1;"
         offset="0"
         id="stop7267" />
      <stop
         style="stop-color:#ff0000;stop-opacity:0;"
         offset="1"
         id="stop7269" />
    </linearGradient>
    <linearGradient
       id="linearGradient7247"
       inkscape:swatch="solid">
      <stop
         style="stop-color:#ff0000;stop-opacity:1;"
         offset="0"
         id="stop7245" />
    </linearGradient>
    <linearGradient
       id="linearGradient5009"
       inkscape:swatch="solid">
      <stop
         style="stop-color:#000000;stop-opacity:1;"
         offset="0"
         id="stop5007" />
    </linearGradient>
    <linearGradient
       inkscape:collect="always"
       xlink:href="#linearGradient5009"
       id="linearGradient5030"
       gradientUnits="userSpaceOnUse"
       x1="0.3065437"
       y1="1.4921862"
       x2="4.1229499"
       y2="1.4921862" />
    <linearGradient
       inkscape:collect="always"
       xlink:href="#linearGradient5009"
       id="linearGradient5958"
       gradientUnits="userSpaceOnUse"
       x1="0.3065437"
       y1="1.4921862"
       x2="4.1229499"
       y2="1.4921862"
       gradientTransform="matrix(0.67250827,0,0,0.67250827,0.90846115,0.48301942)" />
    <linearGradient
       inkscape:collect="always"
       xlink:href="#linearGradient5009"
       id="linearGradient5989"
       gradientUnits="userSpaceOnUse"
       x1="0.3065437"
       y1="1.4921862"
       x2="4.1229499"
       y2="1.4921862" />
    <linearGradient
       inkscape:collect="always"
       xlink:href="#linearGradient5009"
       id="linearGradient6839"
       gradientUnits="userSpaceOnUse"
       x1="0.3065437"
       y1="1.4921862"
       x2="4.1229499"
       y2="1.4921862" />
    <linearGradient
       inkscape:collect="always"
       xlink:href="#linearGradient5009"
       id="linearGradient6923"
       gradientUnits="userSpaceOnUse"
       x1="0.3065437"
       y1="1.4921862"
       x2="4.1229499"
       y2="1.4921862" />
    <linearGradient
       inkscape:collect="always"
       xlink:href="#linearGradient5009"
       id="linearGradient6925"
       gradientUnits="userSpaceOnUse"
       x1="0.3065437"
       y1="1.4921862"
       x2="4.1229499"
       y2="1.4921862" />
  </defs>
  <sodipodi:namedview
     id="base"
     pagecolor="#ffffff"
     bordercolor="#666666"
     borderopacity="1.0"
     inkscape:pageopacity="0.0"
     inkscape:pageshadow="2"
     inkscape:zoom="181.01934"
     inkscape:cx="7.4688154"
     inkscape:cy="12.390941"
     inkscape:document-units="px"
     inkscape:current-layer="layer1"
     showgrid="false"
     inkscape:window-width="1920"
     inkscape:window-height="1017"
     inkscape:window-x="-8"
     inkscape:window-y="-8"
     inkscape:window-maximized="1"
     inkscape:grid-bbox="true"
     showguides="true"
     inkscape:showpageshadow="2"
     inkscape:pagecheckerboard="0"
     inkscape:deskcolor="#d1d1d1" />
  <metadata
     id="metadata3724">
    <rdf:RDF>
      <cc:Work
         rdf:about="">
        <dc:format>image/svg+xml</dc:format>
        <dc:type
           rdf:resource="http://purl.org/dc/dcmitype/StillImage" />
      </cc:Work>
    </rdf:RDF>
  </metadata>
  <g
     inkscape:label="Layer 1"
     inkscape:groupmode="layer"
     id="layer1">
    <g
       id="g1938">
      <path
         style="fill:none;stroke:#000000;stroke-width:0.245;stroke-linecap:butt;stroke-linejoin:miter;stroke-miterlimit:3.5;stroke-dasharray:none;stroke-dashoffset:0;stroke-opacity:1"
         d="M 7.265625,12.695313 C 7.2102114,11.995493 7.1973971,11.815101 6.6648041,11.329712 6.047271,10.625291 4.9629921,10.012752 4.655707,9.0890028 4.5122469,8.6429573 4.6003693,8.1735379 4.5765035,7.7124068 4.6240115,7.4783606 4.677485,7.7732687 4.9976136,7.7739125 5.2633378,7.7737382 5.3426153,7.3137688 5.3500304,8.0874659 5.3674384,8.6358724 5.5065374,9.3145726 6.1373924,9.3212784 6.8170228,9.2784541 6.9651734,8.3746731 6.9237474,7.865238 6.8581372,7.1801305 6.7728429,6.9537309 6.6127506,6.3243072 6.273011,6.0168825 6.2118738,5.923835 6.1131627,5.8008231 6.5957091,5.7800264 6.6853396,5.706386 6.904573,5.4458475 7.0406026,5.6114216 7.272442,5.9719344 7.3630424,6.0822125 7.5818154,6.735823 7.6793365,8.5660395 7.7751032,8.0988817 7.8419536,6.907826 7.8843999,6.1658639 7.8033471,4.972216 7.6787795,4.8013421 7.6831062,4.794 7.619981,4.6863635 7.9026269,4.62676 8.103702,4.4187658 8.1189217,4.3098206 8.2323613,4.4611974 8.3091632,4.5772112 8.390625,4.671875 8.427048,5.0837347 8.4342154,7.6414708 8.4243072,8.0713336 8.8026275,7.6172682 8.9627057,7.4040125 9.1275611,7.0922199 9.2532852,6.8451387 9.283919,6.3101462 9.3247197,5.9617101 c 0,0 -0.051263,-0.1754919 -0.1480401,-0.6906238 C 9.5731883,5.2896125 9.6896703,5.128665 9.867476,4.9472965 9.9917592,5.1529352 10.183607,5.842931 10.162078,6.6098122 10.111393,7.2614659 9.5812717,8.2775334 9.4900052,8.39862 9.3176313,8.5159413 9.765401,8 9.9973938,7.3027319 10.280349,7.1635876 10.226898,7.6506259 10.883135,7.40513 c 0,0 0.03857,0.3289795 -0.177899,0.7534112 -0.42148,0.8263942 -1.131242,1.9805248 -1.131242,1.9805248 -0.5308001,0.887938 -0.4182485,1.201286 -0.4155025,2.078668 -0.00232,0.558444 0.060044,0.482873 -0.2938435,0.483443 -0.7038276,-0.0059 -0.5118504,0.0027 -1.145898,-0.0059 z"
         id="path4614"
         inkscape:connector-curvature="0"
         sodipodi:nodetypes="ccccccccccccccccccccccccccsccccc" />
    </g>
    <path
       id="rect1992"
       style="fill:#000000;stroke-width:1.09545"
       d="m 5.4035921,12.577139 h 5.1928149 v 0.265165 H 5.4035921 Z" />
    <g
       id="g5028"
       transform="matrix(0.4848136,0.64555268,-0.62663465,0.49945007,6.3897139,3.5606521)">
      <path
         id="path5026"
         style="fill:#b7c8c4;fill-opacity:0;stroke:url(#linearGradient5030);stroke-width:0.1;stroke-dasharray:none;stroke-opacity:1"
         d="m 1.0995124,0.9804687 c -0.16180217,3e-8 -0.29296873,0.1311666 -0.2929687,0.2929688 2.3818e-4,0.085796 0.0380725,0.1671751 0.1035156,0.2226562 -0.0605087,0.055104 -0.0952103,0.1330055 -0.0957031,0.2148438 -3e-8,0.1618022 0.13116653,0.2929688 0.2929687,0.2929688 0.1618022,0 0.2929688,-0.1311666 0.2929688,-0.2929688 -4.74e-4,-0.00588 -0.00113,-0.01174 -0.00195,-0.017578 L 2.2138482,1.5239711 2.2703608,1.230597 1.3885749,1.21875 C 1.362222,1.0800482 1.2406942,0.97986986 1.0995124,0.9804687 Z"
         sodipodi:nodetypes="ccccscccccc" />
    </g>
    <path
       style="fill:#b7c8c4;fill-opacity:0;stroke:#000000;stroke-width:0.1;stroke-dasharray:none;stroke-opacity:1"
       d="m 5.9101562,5.6953125 v 0 c 0,0 0.016352,-0.1092176 0.113281,-0.1953125 0.072308,-0.064226 0.1291331,-0.06223 0.1291331,-0.06223"
       id="path5950"
       sodipodi:nodetypes="ccsc" />
    <path
       style="fill:#b7c8c4;fill-opacity:0;stroke:#000000;stroke-width:0.1;stroke-dasharray:none;stroke-opacity:1"
       d="m 6.4600936,5.286041 c 0,0 0.1823939,-0.036041 0.2508439,-0.039947 0.06845,-0.00391 0.1679687,0.054687 0.1679687,0.054687"
       id="path5952"
       sodipodi:nodetypes="ccc" />
    <g
       id="g5956"
       transform="rotate(53.894567,2.33204,8.0113431)">
      <path
         id="path5954"
         style="fill:#b7c8c4;fill-opacity:0;stroke:url(#linearGradient5958);stroke-width:0.0672508;stroke-dasharray:none;stroke-opacity:1"
         d="m 1.1150461,1.1229837 c -0.1088133,0 -0.19702388,0.088211 -0.19702388,0.1970239 1.602e-4,0.057699 0.025604,0.1124267 0.069615,0.1497382 -0.040693,0.037058 -0.06403,0.089447 -0.064361,0.1444842 0,0.1088133 0.088211,0.197024 0.19702378,0.197024 0.1088133,0 0.1179382,-0.1040726 0.1179382,-0.2128856 -3.188e-4,-0.00395 0.078326,0.00796 0.077776,0.00404 L 2.7969236,1.5499046 2.7842273,1.3798361 1.309443,1.2832299 C 1.2917205,1.1899517 1.209992,1.122581 1.1150461,1.1229837 Z"
         sodipodi:nodetypes="ccccscccccc" />
    </g>
    <path
       style="fill:#b7c8c4;fill-opacity:0;stroke:#000000;stroke-width:0.1;stroke-dasharray:none;stroke-opacity:1"
       d="M 7.4818269,4.62676 C 7.5039062,4.4179687 7.6248135,4.3428862 7.6248135,4.3428862"
       id="path5981"
       sodipodi:nodetypes="cc" />
    <path
       style="fill:#b7c8c4;fill-opacity:0;stroke:#000000;stroke-width:0.1;stroke-dasharray:none;stroke-opacity:1"
       d="m 7.7987046,4.2108988 c 0,0 0.052858,-0.062461 0.099733,-0.081993 0.046875,-0.019531 0.1679689,-0.078125 0.1679689,-0.078125"
       id="path5983"
       sodipodi:nodetypes="csc" />
    <g
       id="g5987"
       transform="matrix(0.21630036,0.67180223,-0.62511306,0.23245565,9.9374148,3.3335954)">
      <path
         id="path5985"
         style="fill:#b7c8c4;fill-opacity:0;stroke:url(#linearGradient5989);stroke-width:0.1;stroke-dasharray:none;stroke-opacity:1"
         d="m 1.0995124,0.9804687 c -0.16180217,3e-8 -0.29296873,0.1311666 -0.2929687,0.2929688 2.3818e-4,0.085796 0.0380725,0.1671751 0.1035156,0.2226562 -0.0605087,0.055104 -0.0952103,0.1330055 -0.0957031,0.2148438 -3e-8,0.1618022 0.13116653,0.2929688 0.2929687,0.2929688 0.1618022,0 0.2929688,-0.1311666 0.2929688,-0.2929688 -4.74e-4,-0.00588 -0.00113,-0.01174 -0.00195,-0.017578 L 2.3261031,1.5036308 V 1.288787 L 1.3885749,1.21875 C 1.362222,1.0800482 1.2406942,0.97986986 1.0995124,0.9804687 Z"
         sodipodi:nodetypes="ccccscccccc" />
    </g>
    <path
       style="fill:#b7c8c4;fill-opacity:0;stroke:#000000;stroke-width:0.1;stroke-dasharray:none;stroke-opacity:1"
       d="M 9.0820313,5.1601562 C 9.0664063,4.96875 9.2776486,4.8434257 9.2776486,4.8434257"
       id="path6017"
       sodipodi:nodetypes="cc" />
    <path
       style="fill:#b7c8c4;fill-opacity:0;stroke:#000000;stroke-width:0.1;stroke-dasharray:none;stroke-opacity:1"
       d="M 9.8752885,4.8066715 C 9.6825495,4.6289062 9.5187863,4.7239839 9.5187863,4.7239839"
       id="path6019"
       sodipodi:nodetypes="cc" />
    <g
       id="g6837"
       transform="matrix(-0.16923068,0.51397177,-0.51397177,-0.16923068,11.610474,6.3995697)">
      <path
         id="path6833"
         style="fill:#b7c8c4;fill-opacity:0;stroke:url(#linearGradient6839);stroke-width:0.1;stroke-dasharray:none;stroke-opacity:1"
         d="m 1.0995124,0.9804687 c -0.16180217,3e-8 -0.29296873,0.1311666 -0.2929687,0.2929688 2.3818e-4,0.085796 0.0380725,0.1671751 0.1035156,0.2226562 -0.0605087,0.055104 -0.0952103,0.1330055 -0.0957031,0.2148438 -3e-8,0.1618022 0.13116653,0.2929688 0.2929687,0.2929688 0.1618022,0 0.2929688,-0.1311666 0.2929688,-0.2929688 -4.74e-4,-0.00588 -0.00113,-0.01174 -0.00195,-0.017578 L 2.5169871,1.5763669 V 1.3615231 L 1.3885749,1.21875 C 1.362222,1.0800482 1.2406942,0.97986986 1.0995124,0.9804687 Z"
         sodipodi:nodetypes="ccccscccccc" />
    </g>
    <path
       style="fill:#b7c8c4;fill-opacity:0;stroke:#000000;stroke-width:0.1;stroke-dasharray:none;stroke-opacity:1"
       d="m 10.05045,7.1409238 c 0.257841,-0.1461404 0.407158,-0.097955 0.407158,-0.097955"
       id="path6843"
       sodipodi:nodetypes="cc" />
    <path
       style="fill:#b7c8c4;fill-opacity:0;stroke:#000000;stroke-width:0.1;stroke-dasharray:none;stroke-opacity:1"
       d="m 10.649081,7.1106945 c 0.216187,-4.906e-4 0.30638,0.171521 0.30638,0.171521"
       id="path6845"
       sodipodi:nodetypes="cc" />
    <g
       id="g6921"
       transform="matrix(-0.00719304,0.67500772,-0.67500772,-0.00719304,5.9758114,6.0711186)">
      <path
         id="path6917"
         style="fill:#b7c8c4;fill-opacity:0;stroke:url(#linearGradient6923);stroke-width:0.1;stroke-dasharray:none;stroke-opacity:1"
         d="m 1.0995124,0.9804687 c -0.16180217,3e-8 -0.29296873,0.1311666 -0.2929687,0.2929688 2.3818e-4,0.085796 0.0380725,0.1671751 0.1035156,0.2226562 -0.0605087,0.055104 -0.0952103,0.1330055 -0.0957031,0.2148438 -3e-8,0.1618022 0.13116653,0.2929688 0.2929687,0.2929688 0.1618022,0 0.2929688,-0.1311666 0.2929688,-0.2929688 -4.74e-4,-0.00588 -0.00113,-0.01174 -0.00195,-0.017578 L 2.5057656,1.4941408 V 1.2792969 L 1.3885749,1.21875 C 1.362222,1.0800482 1.2406942,0.97986986 1.0995124,0.9804687 Z"
         sodipodi:nodetypes="ccccscccccc" />
      <path
         id="path6919"
         style="fill:#b7c8c4;fill-opacity:0;stroke:url(#linearGradient6925);stroke-width:0.1;stroke-dasharray:none;stroke-opacity:1"
         d="m 1.0995124,0.9804687 c -0.16180217,3e-8 -0.29296873,0.1311666 -0.2929687,0.2929688 2.3818e-4,0.085796 0.0380725,0.1671751 0.1035156,0.2226562 -0.0605087,0.055104 -0.0952103,0.1330055 -0.0957031,0.2148438 -3e-8,0.1618022 0.13116653,0.2929688 0.2929687,0.2929688 0.1618022,0 0.2929688,-0.1311666 0.2929688,-0.2929688 -4.74e-4,-0.00588 -0.00113,-0.01174 -0.00195,-0.017578 l 1.1074219,-0.1992187 0,-0.2148439 L 1.3885749,1.21875 C 1.362222,1.0800482 1.2406942,0.97986986 1.0995124,0.9804687 Z"
         sodipodi:nodetypes="ccccscccccc" />
    </g>
    <path
       style="fill:#b7c8c4;fill-opacity:0;stroke:#000000;stroke-width:0.1;stroke-dasharray:none;stroke-opacity:1"
       d="M 4.5765035,7.7124068 C 4.3945312,7.5351562 4.8859765,7.3773067 4.8859765,7.3773067"
       id="path6927"
       sodipodi:nodetypes="cc" />
    <path
       style="fill:#b7c8c4;fill-opacity:0;stroke:#000000;stroke-width:0.1;stroke-dasharray:none;stroke-opacity:1"
       d="M 5.388979,7.6717278 C 5.304992,7.4963607 5.1269941,7.4045772 5.1269941,7.4045772"
       id="path6929"
       sodipodi:nodetypes="cc" />
  </g>
</svg>
